<?xml version="1.0" encoding="UTF-8" standalone="no"?>
<!-- Created with Inkscape (http://www.inkscape.org/) -->

<svg
   width="32"
   height="32"
   version="1.1"
   viewBox="0 0 32 32"
   xml:space="preserve"
   id="svg11"
   sodipodi:docname="io.github.fastrizwaan.epubviewer.svg"
   inkscape:version="1.4.2 (ebf0e940d0, 2025-05-08)"
   xmlns:inkscape="http://www.inkscape.org/namespaces/inkscape"
   xmlns:sodipodi="http://sodipodi.sourceforge.net/DTD/sodipodi-0.dtd"
   xmlns="http://www.w3.org/2000/svg"
   xmlns:svg="http://www.w3.org/2000/svg"><sodipodi:namedview
     id="namedview11"
     pagecolor="#ffffff"
     bordercolor="#000000"
     borderopacity="0.25"
     inkscape:showpageshadow="2"
     inkscape:pageopacity="0.0"
     inkscape:pagecheckerboard="0"
     inkscape:deskcolor="#d1d1d1"
     showguides="true"
     inkscape:zoom="22.627417"
     inkscape:cx="16.152971"
     inkscape:cy="22.251767"
     inkscape:window-width="1216"
     inkscape:window-height="1190"
     inkscape:window-x="26"
     inkscape:window-y="23"
     inkscape:window-maximized="0"
     inkscape:current-layer="svg11" /><defs
     id="defs2"><linearGradient
       id="linearGradient3898"
       x1="4"
       x2="28"
       y1="31"
       y2="1"
       gradientUnits="userSpaceOnUse"><stop
         stop-color="#083fa6"
         offset="0"
         id="stop1" /><stop
         stop-color="#2dcbfd"
         offset="1"
         id="stop2" /></linearGradient></defs><path
     id="path29"
     style="baseline-shift:baseline;display:inline;overflow:visible;vector-effect:none;fill:#86b918;fill-opacity:1;enable-background:accumulate;stop-color:#000000"
     d="M 4.2539062,6 C 3.7128369,6 3.2059066,6.1443035 2.7832031,6.4433594 2.3604997,6.7424152 2,7.2576388 2,7.875 V 8.0019531 26.125 c 0,0.01741 -5.664e-4,0.03549 0,0.05273 v 0.07422 c 0,0.07709 0.013991,0.15121 0.039063,0.222656 0.1043351,0.460797 0.4042044,0.841532 0.7441406,1.082032 C 3.2059068,27.855696 3.7128374,28 4.2539062,28 H 27.746094 c 0.541068,0 1.047999,-0.144304 1.470703,-0.443359 C 29.6395,27.257585 30,26.742362 30,26.125 V 7.875 C 30,7.2576383 29.6395,6.7424151 29.216797,6.4433594 28.794094,6.1443037 28.287163,6 27.746094,6 Z" /><path
     id="path99"
     style="baseline-shift:baseline;display:inline;overflow:visible;vector-effect:none;fill:#f2f2f2;fill-opacity:1;enable-background:accumulate;stop-color:#000000"
     d="M 4.2539062,5 C 3.7128369,5 3.2059066,5.1443035 2.7832031,5.4433594 2.3604997,5.7424152 2,6.2576388 2,6.875 V 7.0019531 25.125 c 0,0.01741 -5.664e-4,0.03549 0,0.05273 v 0.07422 c 0,0.07709 0.013991,0.15121 0.039063,0.222656 0.1043351,0.460797 0.4042044,0.841532 0.7441406,1.082032 C 3.2059068,26.855696 3.7128374,27 4.2539062,27 H 27.746094 c 0.541068,0 1.047999,-0.144304 1.470703,-0.443359 C 29.6395,26.257585 30,25.742362 30,25.125 V 6.875 C 30,6.2576383 29.6395,5.7424151 29.216797,5.4433594 28.794094,5.1443037 28.287163,5 27.746094,5 Z" /><g
     id="g23"
     style="opacity:1;fill:#eaeaea;fill-opacity:1"
     transform="matrix(-1,0,0,1,71.999749,0)"><path
       id="path26"
       style="baseline-shift:baseline;display:inline;overflow:visible;vector-effect:none;fill:#eaeaea;fill-opacity:1;enable-background:accumulate;stop-color:#000000;stop-opacity:1"
       d="M 56.000001,4.9370018 44.253906,4.9365237 C 43.712837,4.9365017 43.205907,5.0808272 42.783203,5.3798831 42.3605,5.6789389 42,6.1941625 42,6.8115237 V 6.9384768 25.061523 c 0,0.01741 -5.66e-4,0.03549 0,0.05273 v 0.07422 c 0,0.07709 0.01399,0.15121 0.03906,0.222656 0.104335,0.460797 0.404204,0.841532 0.74414,1.082032 0.422704,0.299055 0.929634,0.443359 1.470703,0.443359 l 11.746096,4.78e-4 z"
       sodipodi:nodetypes="cssscscscsscc" /></g><text
     xml:space="preserve"
     style="font-style:italic;font-variant:normal;font-weight:500;font-stretch:normal;font-size:9.33333px;font-family:'Noto Serif';-inkscape-font-specification:'Noto Serif Medium Italic';text-align:start;writing-mode:lr-tb;direction:ltr;text-anchor:start;fill:#2e3436;fill-opacity:1;stroke:none"
     x="0.94800168"
     y="18.500002"
     id="text5"><tspan
       sodipodi:role="line"
       id="tspan5" /></text><path
     id="path5"
     style="color:#000000;font-style:normal;font-variant:normal;font-weight:normal;font-stretch:normal;font-size:medium;line-height:normal;font-family:sans-serif;font-variant-ligatures:normal;font-variant-position:normal;font-variant-caps:normal;font-variant-numeric:normal;font-variant-alternates:normal;font-variant-east-asian:normal;font-feature-settings:normal;font-variation-settings:normal;text-indent:0;text-align:start;text-decoration-line:none;text-decoration-style:solid;text-decoration-color:#000000;letter-spacing:normal;word-spacing:normal;text-transform:none;writing-mode:lr-tb;direction:ltr;text-orientation:mixed;dominant-baseline:auto;baseline-shift:baseline;text-anchor:start;white-space:normal;shape-padding:0;shape-margin:0;inline-size:0;clip-rule:nonzero;display:inline;overflow:visible;visibility:visible;isolation:auto;mix-blend-mode:normal;color-interpolation:sRGB;color-interpolation-filters:linearRGB;solid-color:#000000;solid-opacity:1;vector-effect:none;fill:#2e3436;fill-opacity:0.654548;fill-rule:nonzero;stroke:none;stroke-width:0.116655;stroke-linecap:butt;stroke-linejoin:miter;stroke-miterlimit:4;stroke-dasharray:none;stroke-dashoffset:0;stroke-opacity:1;-inkscape-stroke:none;color-rendering:auto;image-rendering:auto;shape-rendering:auto;text-rendering:auto;enable-background:accumulate;stop-color:#000000"
     d="m 19.292248,11 h 7.415506 c 0.161906,0 0.292248,0.150507 0.292248,0.337458 v 0.325086 c 0,0.18695 -0.130342,0.337457 -0.292248,0.337457 H 19.292248 C 19.130342,12.000001 19,11.849494 19,11.662544 V 11.337458 C 19,11.150507 19.130342,11 19.292248,11 Z"
     sodipodi:nodetypes="sssssssss" /><path
     id="path7"
     style="color:#000000;font-style:normal;font-variant:normal;font-weight:normal;font-stretch:normal;font-size:medium;line-height:normal;font-family:sans-serif;font-variant-ligatures:normal;font-variant-position:normal;font-variant-caps:normal;font-variant-numeric:normal;font-variant-alternates:normal;font-variant-east-asian:normal;font-feature-settings:normal;font-variation-settings:normal;text-indent:0;text-align:start;text-decoration-line:none;text-decoration-style:solid;text-decoration-color:#000000;letter-spacing:normal;word-spacing:normal;text-transform:none;writing-mode:lr-tb;direction:ltr;text-orientation:mixed;dominant-baseline:auto;baseline-shift:baseline;text-anchor:start;white-space:normal;shape-padding:0;shape-margin:0;inline-size:0;clip-rule:nonzero;display:inline;overflow:visible;visibility:visible;isolation:auto;mix-blend-mode:normal;color-interpolation:sRGB;color-interpolation-filters:linearRGB;solid-color:#000000;solid-opacity:1;vector-effect:none;fill:#2e3436;fill-opacity:0.654548;fill-rule:nonzero;stroke:none;stroke-width:0.116655;stroke-linecap:butt;stroke-linejoin:miter;stroke-miterlimit:4;stroke-dasharray:none;stroke-dashoffset:0;stroke-opacity:1;-inkscape-stroke:none;color-rendering:auto;image-rendering:auto;shape-rendering:auto;text-rendering:auto;enable-background:accumulate;stop-color:#000000"
     d="m 19.292248,13 h 7.415506 c 0.161906,0 0.292248,0.150507 0.292248,0.337457 v 0.325086 c 0,0.186951 -0.130342,0.337458 -0.292248,0.337458 H 19.292248 C 19.130342,14.000001 19,13.849494 19,13.662543 V 13.337457 C 19,13.150507 19.130342,13 19.292248,13 Z"
     sodipodi:nodetypes="sssssssss" /><path
     id="path9"
     style="color:#000000;font-style:normal;font-variant:normal;font-weight:normal;font-stretch:normal;font-size:medium;line-height:normal;font-family:sans-serif;font-variant-ligatures:normal;font-variant-position:normal;font-variant-caps:normal;font-variant-numeric:normal;font-variant-alternates:normal;font-variant-east-asian:normal;font-feature-settings:normal;font-variation-settings:normal;text-indent:0;text-align:start;text-decoration-line:none;text-decoration-style:solid;text-decoration-color:#000000;letter-spacing:normal;word-spacing:normal;text-transform:none;writing-mode:lr-tb;direction:ltr;text-orientation:mixed;dominant-baseline:auto;baseline-shift:baseline;text-anchor:start;white-space:normal;shape-padding:0;shape-margin:0;inline-size:0;clip-rule:nonzero;display:inline;overflow:visible;visibility:visible;isolation:auto;mix-blend-mode:normal;color-interpolation:sRGB;color-interpolation-filters:linearRGB;solid-color:#000000;solid-opacity:1;vector-effect:none;fill:#2e3436;fill-opacity:0.654548;fill-rule:nonzero;stroke:none;stroke-width:0.116655;stroke-linecap:butt;stroke-linejoin:miter;stroke-miterlimit:4;stroke-dasharray:none;stroke-dashoffset:0;stroke-opacity:1;-inkscape-stroke:none;color-rendering:auto;image-rendering:auto;shape-rendering:auto;text-rendering:auto;enable-background:accumulate;stop-color:#000000"
     d="m 19.292248,14.999999 h 7.415506 c 0.161906,0 0.292248,0.150507 0.292248,0.337458 v 0.325086 C 27.000002,15.849493 26.86966,16 26.707754,16 H 19.292248 C 19.130342,16 19,15.849493 19,15.662543 v -0.325086 c 0,-0.186951 0.130342,-0.337458 0.292248,-0.337458 z"
     sodipodi:nodetypes="sssssssss" /><path
     id="path11"
     style="color:#000000;font-style:normal;font-variant:normal;font-weight:normal;font-stretch:normal;font-size:medium;line-height:normal;font-family:sans-serif;font-variant-ligatures:normal;font-variant-position:normal;font-variant-caps:normal;font-variant-numeric:normal;font-variant-alternates:normal;font-variant-east-asian:normal;font-feature-settings:normal;font-variation-settings:normal;text-indent:0;text-align:start;text-decoration-line:none;text-decoration-style:solid;text-decoration-color:#000000;letter-spacing:normal;word-spacing:normal;text-transform:none;writing-mode:lr-tb;direction:ltr;text-orientation:mixed;dominant-baseline:auto;baseline-shift:baseline;text-anchor:start;white-space:normal;shape-padding:0;shape-margin:0;inline-size:0;clip-rule:nonzero;display:inline;overflow:visible;visibility:visible;isolation:auto;mix-blend-mode:normal;color-interpolation:sRGB;color-interpolation-filters:linearRGB;solid-color:#000000;solid-opacity:1;vector-effect:none;fill:#2e3436;fill-opacity:0.654548;fill-rule:nonzero;stroke:none;stroke-width:0.116655;stroke-linecap:butt;stroke-linejoin:miter;stroke-miterlimit:4;stroke-dasharray:none;stroke-dashoffset:0;stroke-opacity:1;-inkscape-stroke:none;color-rendering:auto;image-rendering:auto;shape-rendering:auto;text-rendering:auto;enable-background:accumulate;stop-color:#000000"
     d="m 19.292248,16.999999 h 7.415506 c 0.161906,0 0.292248,0.150507 0.292248,0.337457 v 0.325086 C 27.000002,17.849493 26.86966,18 26.707754,18 H 19.292248 C 19.130342,18 19,17.849493 19,17.662542 v -0.325086 c 0,-0.18695 0.130342,-0.337457 0.292248,-0.337457 z"
     sodipodi:nodetypes="sssssssss" /><path
     id="path13"
     style="color:#000000;font-style:normal;font-variant:normal;font-weight:normal;font-stretch:normal;font-size:medium;line-height:normal;font-family:sans-serif;font-variant-ligatures:normal;font-variant-position:normal;font-variant-caps:normal;font-variant-numeric:normal;font-variant-alternates:normal;font-variant-east-asian:normal;font-feature-settings:normal;font-variation-settings:normal;text-indent:0;text-align:start;text-decoration-line:none;text-decoration-style:solid;text-decoration-color:#000000;letter-spacing:normal;word-spacing:normal;text-transform:none;writing-mode:lr-tb;direction:ltr;text-orientation:mixed;dominant-baseline:auto;baseline-shift:baseline;text-anchor:start;white-space:normal;shape-padding:0;shape-margin:0;inline-size:0;clip-rule:nonzero;display:inline;overflow:visible;visibility:visible;isolation:auto;mix-blend-mode:normal;color-interpolation:sRGB;color-interpolation-filters:linearRGB;solid-color:#000000;solid-opacity:1;vector-effect:none;fill:#2e3436;fill-opacity:0.654548;fill-rule:nonzero;stroke:none;stroke-width:0.116655;stroke-linecap:butt;stroke-linejoin:miter;stroke-miterlimit:4;stroke-dasharray:none;stroke-dashoffset:0;stroke-opacity:1;-inkscape-stroke:none;color-rendering:auto;image-rendering:auto;shape-rendering:auto;text-rendering:auto;enable-background:accumulate;stop-color:#000000"
     d="m 19.292248,18.999998 h 7.415506 c 0.161906,0 0.292248,0.150507 0.292248,0.337458 v 0.325086 c 0,0.18695 -0.130342,0.337457 -0.292248,0.337457 H 19.292248 C 19.130342,19.999999 19,19.849492 19,19.662542 v -0.325086 c 0,-0.186951 0.130342,-0.337458 0.292248,-0.337458 z"
     sodipodi:nodetypes="sssssssss" /><path
     id="path2"
     style="color:#000000;font-style:normal;font-variant:normal;font-weight:normal;font-stretch:normal;font-size:medium;line-height:normal;font-family:sans-serif;font-variant-ligatures:normal;font-variant-position:normal;font-variant-caps:normal;font-variant-numeric:normal;font-variant-alternates:normal;font-variant-east-asian:normal;font-feature-settings:normal;font-variation-settings:normal;text-indent:0;text-align:start;text-decoration-line:none;text-decoration-style:solid;text-decoration-color:#000000;letter-spacing:normal;word-spacing:normal;text-transform:none;writing-mode:lr-tb;direction:ltr;text-orientation:mixed;dominant-baseline:auto;baseline-shift:baseline;text-anchor:start;white-space:normal;shape-padding:0;shape-margin:0;inline-size:0;clip-rule:nonzero;display:inline;overflow:visible;visibility:visible;isolation:auto;mix-blend-mode:normal;color-interpolation:sRGB;color-interpolation-filters:linearRGB;solid-color:#000000;solid-opacity:1;vector-effect:none;fill:#2e3436;fill-opacity:0.654548;fill-rule:nonzero;stroke:none;stroke-width:0.116655;stroke-linecap:butt;stroke-linejoin:miter;stroke-miterlimit:4;stroke-dasharray:none;stroke-dashoffset:0;stroke-opacity:1;-inkscape-stroke:none;color-rendering:auto;image-rendering:auto;shape-rendering:auto;text-rendering:auto;enable-background:accumulate;stop-color:#000000"
     d="m 19.292248,20.999998 h 7.415506 c 0.161906,0 0.292248,0.150507 0.292248,0.337458 v 0.325086 c 0,0.18695 -0.130342,0.337457 -0.292248,0.337457 H 19.292248 C 19.130342,21.999999 19,21.849492 19,21.662542 v -0.325086 c 0,-0.186951 0.130342,-0.337458 0.292248,-0.337458 z"
     sodipodi:nodetypes="sssssssss" /><path
     id="path3"
     style="color:#000000;font-style:normal;font-variant:normal;font-weight:normal;font-stretch:normal;font-size:medium;line-height:normal;font-family:sans-serif;font-variant-ligatures:normal;font-variant-position:normal;font-variant-caps:normal;font-variant-numeric:normal;font-variant-alternates:normal;font-variant-east-asian:normal;font-feature-settings:normal;font-variation-settings:normal;text-indent:0;text-align:start;text-decoration-line:none;text-decoration-style:solid;text-decoration-color:#000000;letter-spacing:normal;word-spacing:normal;text-transform:none;writing-mode:lr-tb;direction:ltr;text-orientation:mixed;dominant-baseline:auto;baseline-shift:baseline;text-anchor:start;white-space:normal;shape-padding:0;shape-margin:0;inline-size:0;clip-rule:nonzero;display:inline;overflow:visible;visibility:visible;isolation:auto;mix-blend-mode:normal;color-interpolation:sRGB;color-interpolation-filters:linearRGB;solid-color:#000000;solid-opacity:1;vector-effect:none;fill:#2e3436;fill-opacity:0.654548;fill-rule:nonzero;stroke:none;stroke-width:0.116655;stroke-linecap:butt;stroke-linejoin:miter;stroke-miterlimit:4;stroke-dasharray:none;stroke-dashoffset:0;stroke-opacity:1;-inkscape-stroke:none;color-rendering:auto;image-rendering:auto;shape-rendering:auto;text-rendering:auto;enable-background:accumulate;stop-color:#000000"
     d="m 19.292248,9 h 7.415506 c 0.161906,0 0.292248,0.150507 0.292248,0.337458 v 0.325086 c 0,0.18695 -0.130342,0.337457 -0.292248,0.337457 H 19.292248 C 19.130342,10.000001 19,9.849494 19,9.662544 V 9.337458 C 19,9.150507 19.130342,9 19.292248,9 Z"
     sodipodi:nodetypes="sssssssss" /><g
     id="path28"
     style="opacity:1"><path
       style="baseline-shift:baseline;display:inline;overflow:visible;vector-effect:none;fill:#deddda;stroke-linecap:round;stroke-linejoin:bevel;enable-background:accumulate;stop-color:#000000;stop-opacity:1"
       d="M 16,5 V 27"
       id="path25" /><path
       style="baseline-shift:baseline;display:inline;overflow:visible;vector-effect:none;fill:#444444;stroke-linecap:round;stroke-linejoin:bevel;enable-background:accumulate;stop-color:#000000;stop-opacity:1"
       d="M 16,4.9492187 A 0.05,0.05 0 0 0 15.949219,5 V 27 A 0.05,0.05 0 0 0 16,27.050781 0.05,0.05 0 0 0 16.050781,27 V 5 A 0.05,0.05 0 0 0 16,4.9492187 Z"
       id="path27" /></g><path
     fill="#86b918"
     d="m 6.804954,18.195032 2.04e-4,-5.415038 5.414647,1.88e-4 1.72e-4,1.804948 -3.609951,-2.68e-4 -2.7e-5,1.804996 5.414673,2.25e-4 -9.7e-5,-4.716979 c 1.95e-4,-0.385318 -0.312186,-0.697698 -0.697699,-0.697698 l -7.629188,1.5e-5 C 5.312537,10.975404 5.000146,11.287796 5,11.67311 l 8.1e-5,7.629091 c 8e-5,0.385432 0.31246,0.697813 0.697699,0.697698 l 7.629107,10e-5 c 0.385314,-1.46e-4 0.697705,-0.312538 0.697688,-0.697689 l -1.23e-4,-1.107325 z"
     id="path1"
     style="stroke-width:0.0226131" /></svg>
